{
  "asset": {
    "generator": "glTF-Transform v3.7.4",
    "version": "2.0",
    "extras": {
      "author": "SleepyPineapple (https://sketchfab.com/SleepyPineapple)",
      "license": "CC-BY-4.0 (http://creativecommons.org/licenses/by/4.0/)",
      "source": "https://sketchfab.com/3d-models/pumpkin-79f906eceb3640bf8729b903cdd47f9b",
      "title": "Pumpkin"
    }
  },
  "accessors": [
    {
      "type": "VEC3",
      "componentType": 5126,
      "count": 528,
      "max": [
        0.9502769708633423,
        0.9646869897842407,
        0.784273624420166
      ],
      "min": [
        -0.9413021206855774,
        -0.972038209438324,
        -0.8331544995307922
      ],
      "bufferView": 0,
      "byteOffset": 0
    },
    {
      "type": "VEC3",
      "componentType": 5126,
      "count": 528,
      "bufferView": 0,
      "byteOffset": 12
    },
    {
      "type": "VEC2",
      "componentType": 5126,
      "count": 528,
      "bufferView": 0,
      "byteOffset": 24
    },
    {
      "type": "VEC3",
      "componentType": 5126,
      "count": 132,
      "max": [
        0.07272516191005707,
        0.09102871268987656,
        1.176515817642212
      ],
      "min": [
        -0.19642871618270874,
        -0.0927884504199028,
        0.701716423034668
      ],
      "bufferView": 1,
      "byteOffset": 0
    },
    {
      "type": "VEC3",
      "componentType": 5126,
      "count": 132,
      "bufferView": 1,
      "byteOffset": 12
    },
    {
      "type": "VEC2",
      "componentType": 5126,
      "count": 132,
      "bufferView": 1,
      "byteOffset": 24
    },
    {
      "type": "SCALAR",
      "componentType": 5125,
      "count": 2970,
      "bufferView": 2,
      "byteOffset": 0
    },
    {
      "type": "SCALAR",
      "componentType": 5125,
      "count": 666,
      "bufferView": 2,
      "byteOffset": 11880
    }
  ],
  "bufferViews": [
    {
      "buffer": 0,
      "byteOffset": 0,
      "byteLength": 16896,
      "byteStride": 32,
      "target": 34962
    },
    {
      "buffer": 0,
      "byteOffset": 16896,
      "byteLength": 4224,
      "byteStride": 32,
      "target": 34962
    },
    {
      "buffer": 0,
      "byteOffset": 21120,
      "byteLength": 14544,
      "target": 34963
    }
  ],
  "buffers": [
    {
      "uri": "scene.bin",
      "byteLength": 35664
    }
  ],
  "materials": [
    {
      "name": "Material.001",
      "doubleSided": true,
      "pbrMetallicRoughness": {
        "baseColorFactor": [
          0.7999999999999999,
          0.20594800000000002,
          0.04671700000000002,
          1
        ],
        "roughnessFactor": 0.9282787955850439,
        "metallicFactor": 0
      },
      "extensions": {
        "KHR_materials_ior": {
          "ior": 1000
        },
        "KHR_materials_specular": {
          "specularColorFactor": [
            0,
            0,
            0
          ]
        }
      }
    },
    {
      "name": "Material.002",
      "doubleSided": true,
      "pbrMetallicRoughness": {
        "baseColorFactor": [
          0.02588630000000002,
          0.31729399999999985,
          0.10351099999999996,
          1
        ],
        "roughnessFactor": 0.9253278733378326,
        "metallicFactor": 0
      },
      "extensions": {
        "KHR_materials_ior": {
          "ior": 1000
        },
        "KHR_materials_specular": {
          "specularColorFactor": [
            0,
            0,
            0
          ]
        }
      }
    }
  ],
  "meshes": [
    {
      "name": "Sphere_Material.001_0",
      "primitives": [
        {
          "attributes": {
            "NORMAL": 1,
            "POSITION": 0,
            "TEXCOORD_0": 2
          },
          "mode": 4,
          "material": 0,
          "indices": 6
        }
      ]
    },
    {
      "name": "Sphere_Material.002_0",
      "primitives": [
        {
          "attributes": {
            "NORMAL": 4,
            "POSITION": 3,
            "TEXCOORD_0": 5
          },
          "mode": 4,
          "material": 1,
          "indices": 7
        }
      ]
    }
  ],
  "nodes": [
    {
      "name": "Sketchfab_model",
      "rotation": [
        -0.7071067811865475,
        0,
        0,
        0.7071067811865476
      ],
      "children": [
        1
      ]
    },
    {
      "name": "1307659769c14dd28cb21a7c1a1a02e5.fbx",
      "rotation": [
        0.7071067811865475,
        0,
        0,
        0.7071067811865476
      ],
      "children": [
        2
      ]
    },
    {
      "name": "RootNode",
      "children": [
        3
      ]
    },
    {
      "name": "Sphere",
      "translation": [
        0,
        28.830093383789062,
        0
      ],
      "rotation": [
        -0.7071068387877036,
        0,
        0,
        0.7071067235853866
      ],
      "scale": [
        33.359100341796875,
        33.35910034179688,
        33.35910034179688
      ],
      "children": [
        4,
        5
      ]
    },
    {
      "name": "Sphere_Material.001_0",
      "mesh": 0
    },
    {
      "name": "Sphere_Material.002_0",
      "mesh": 1
    }
  ],
  "scenes": [
    {
      "name": "Sketchfab_Scene",
      "nodes": [
        0
      ]
    }
  ],
  "scene": 0,
  "extensionsUsed": [
    "KHR_materials_ior",
    "KHR_materials_specular"
  ]
}